<?xml version="1.0" encoding="UTF-8"?>
<svg id="Camada_1" data-name="Camada 1" xmlns="http://www.w3.org/2000/svg" viewBox="0 0 98.56 94.46">
  <defs>
    <style>
      .cls-1 {
        fill: #b6d8e8;
      }

      .cls-2 {
        fill: #1d6a38;
      }

      .cls-3 {
        fill: #5c953f;
      }

      .cls-4 {
        fill: #2181bb;
      }

      .cls-5 {
        fill: #68b2d5;
      }
    </style>
  </defs>
  <path class="cls-1" d="M83.81,45.62c-1.86,20.68-27.55,32.69-48.31,32.84-23.06.17-33.39-8.03-33.67-28.79C1.5,25.53,20.35,11.25,41.11,11.25s44.78,11.23,42.7,34.37Z"/>
  <path class="cls-2" d="M10.96,74.04c.02.24-.05.68-.32.75-.48-.8-1.6-1.37-1.44-2.49.6.66,1.03,1.25,1.77,1.74Z"/>
  <path class="cls-2" d="M88.52,19.67c-.02-.16-.04-.47-.43-.27,3.65,9.49-1.9,25.6-8.17,33.34l-3.36,4.15c-.49.6-1.41,1.74-1.53,2.42-.22,1.22,1.94.8,2.64.98.94.24,2.52,1.93,3.79.66,2.31-2.31,3.99-5.29,5.92-8.07,2.85-4.1,4.34-8.83,5.55-13.71,1.08-4.36.7-8.66.42-12.87,4.51,8.75,5.84,17.31.37,26.24-3.92,6.41-8.63,10.88-14.54,15.36-10.72,8.12-21.96,11.76-35.32,12.72-3.04.22-6.01.39-9.01.03l-7.1-.85c2.82,1.15,5.82,1.96,8.92,2.01l3.76.06c2.77.05,5.29.15,8.05-.02,9.6-.61,20.34-4.13,28.52-9.13,8.71-5.32,16.03-11.97,21.57-20.85-2.89,25.44-27.37,36.63-50.07,35.89l2.48-.46,3.49-.26c2.25-.17,4.43-.38,6.6-.82,0-1.19-.8-1.98-1.21-3.01-.17-.42.28-1.14,0-1.43-.36-.38-.94-.54-1.54-.45l-7.47,1.02c-4.34.59-8.84.63-13.21,0l-7.38-1.06-2.14-.34c-1.91-.3-3.76-1.09-5.63-1.54-4.29-1.03-8.01-3.01-11.52-5.39-.02-.31-.42-.51-.36-1.02.4.13.56.24.86.28s.57-.12.51-.52c4.53,2.22,9.29,3.83,14.58,4.28,12.36,1.05,21.96-1.05,33-6.56.22-.34.78-.49.26-.61,5.95-3.05,11.17-7.64,15.91-12.36-1.95,1.94,4.46-5.7,3.72-4.81,2.25-2.73,3.88-5.85,5.28-9.09,2.49-5.78,3.99-11.68,3.85-17.97-.06-2.86-.22-5.63-2.02-7.99-.21-.28-.05-.5.27-.51.56.78,2.26,1.46,1.7,2.51Z"/>
  <path class="cls-3" d="M34.85,2.19c2.59,1.29,5.37,2.18,7.89,3.9l5.64,3.86c.79.54,1.78.73,2.17,1.55-1.69-.55-3.53-.27-5.22-.6-2.31-.45-4.77-.51-7.36-.25l-3.17.31c-3.54.35-6.74,1.51-9.84,2.75-2.02.8-3.99,1.8-5.6,3.18-.78.67-1.89.87-2.76,1.8-1.29,1.37-2.57,2.85-4.07,4.01s-2.25,2.93-3.35,4.35c-3.3,4.29-7.09,12.82-7.24,18.44l-.28,10.36c-.34-.54-.41-1.09-.93-1.06-2.06-9.21.37-23.07,5.87-31.37l3.5-5.28c1.54-2.33,3.84-4.11,5.87-6.04,3.74-3.55,13.85-9.75,18.87-9.91Z"/>
  <path class="cls-3" d="M48.49,87.78c-6.77,1.25-13.56-1.74-20.42-3.9,3.43,2.16,7.26,3.25,10.94,4.6-.12-.01-.32-.1-.68.22l6.91,1.66c.63.15.48.93.46,1.42s-.8.47-1.1.8c-.76.85-1.2.79-2.19.62-3.08-.53-6-1.13-8.87-2.43-.44-.2-.95-.12-1.11.19-5.35-1.79-9.88-4.96-14.43-8.5-2.17-1.68-6.04-5.49-7.35-7.67.27-.07.34-.51.32-.75,3.51,2.38,7.23,4.36,11.52,5.39,1.88.45,3.72,1.24,5.63,1.54l2.14.34,7.38,1.06c4.37.63,8.88.58,13.21,0l7.47-1.02c.6-.08,1.18.07,1.54.45.27.3-.18,1.01,0,1.43.41,1.03,1.22,1.82,1.21,3.01-2.17.44-4.35.65-6.6.82l-3.49.26-2.48.46Z"/>
  <path class="cls-3" d="M11.96,72.78c.06.4-.2.56-.51.52s-.46-.14-.86-.28c-.06.51.34.7.36,1.02-.73-.5-1.16-1.08-1.77-1.74-.1-.11-.2-.24-.31-.33.14.05.3-.08.26-.16l-.3-.51c1.07.04,2.09.98,3.12,1.48Z"/>
  <path class="cls-3" d="M88.52,19.67c2.12,1.18,3.81,4.69,4.81,6.64.28,4.2.66,8.5-.42,12.87-1.21,4.89-2.69,9.61-5.55,13.71-1.93,2.77-3.61,5.76-5.92,8.07-1.27,1.27-2.85-.43-3.79-.66-.7-.18-2.86.25-2.64-.98.12-.68,1.05-1.82,1.53-2.42l3.36-4.15c6.27-7.75,11.82-23.85,8.17-33.34.39-.2.41.11.43.27Z"/>
  <path class="cls-3" d="M64.99,2.47c-.17.56.55.52.89.84,3.31,3.15,5.5,7.04,7.19,11.09-1.12-.63,2.24,6.64,1.7,7.35-.52-.27-.68-.53-1.01-.73-.28-.17-.63-.08-.69.41-.98-.49-1.73-2.05-3.14-2.17l-2.62-2.24c.11.09-9.86-15.79-16.39-16.96,1.21,0,2.47-.15,3.82.05,3.59.51,7.01,1.2,10.26,2.37Z"/>
  <path class="cls-3" d="M48.13.05l5.15,3.63c4.72,3.33,8.16,8.07,11.34,12.76-3.41-1.62-6.77-3.59-10.51-4.22-2.93-3.23-6.71-5.6-10.48-8.05-2.05-1.33-4.11-2.38-6.39-2.72C40.64.04,44.45.05,48.13.05Z"/>
  <path class="cls-3" d="M84.3,14.76c.17.3.16.69.39,1,.14,2.04-1.17,4.13-3.15,5.46-.85.57-1.66,2.44-3.16,1.42-.94-.64-1.04-2.45-1.15-3.61-.29-.03-.43.27-.65.3-1.1-6.18-3.43-11.46-8.43-15.5,3.32.87,6.13,2.65,9.03,4.74,2.61,1.88,5.59,3.48,7.13,6.19Z"/>
  <path class="cls-2" d="M53.05,94.1h-6.67c-5.95,0-8.87-1.44-13.96-3.14.16-.31.67-.39,1.11-.19,2.87,1.3,5.79,1.91,8.87,2.43.99.17,1.43.23,2.19-.62.3-.33,1.07-.29,1.1-.8s.17-1.26-.46-1.42l-6.91-1.66c.36-.32.56-.23.68-.22,2.88,1.06,6.17,1.19,9.35,1.53,7.31.8,21.24-.11,28.23-3.32-.47,1.11-1.52,1.25-2.49,1.77-6.54,3.51-13.75,5.63-21.04,5.63Z"/>
  <path class="cls-3" d="M53.05,94.1c.03.27-.32.36-.68.36h-5.3c-.36,0-.71-.09-.68-.36h6.67Z"/>
  <path class="cls-2" d="M8.88,71.97c-.2-.17-.22-.54-.43-.69h.39s.3.53.3.53c.04.08-.12.21-.26.16Z"/>
  <path class="cls-2" d="M86.41,22.48c-.34.03-.44.59-.4,1.02.28,3.35-.11,6.43-.86,9.65-.39,1.68-.27,3.57-1.62,5.08-1.23-3.98-1.87-8.21-4.56-10.85-.38-.37-1.29-1.04-1.26-1.75.1-2.34-.78-4.29-1.14-6.31.22-.03.36-.32.65-.3.11,1.16.21,2.97,1.15,3.61,1.5,1.02,2.3-.85,3.16-1.42,1.99-1.33,3.29-3.42,3.15-5.46,1.27,1.77,1.63,4.45,1.72,6.72Z"/>
  <path class="cls-2" d="M78.98,27.38c2.69,2.64,3.33,6.87,4.56,10.85,1.35-1.51,1.23-3.4,1.62-5.08.75-3.22,1.19-2.77.91-6.12-.04-.43,0-4.52.35-4.55.24,6.36-.47,12.7-3.08,18.79-.57-5.27-2.19-9.57-4.35-13.89Z"/>
  <path class="cls-2" d="M75.8,23.17c-1.36.19-1.49-1.12-2.73-1.74.06-.48.41-.57.69-.41.34.2.49.46,1.01.73.54-.71-2.82-7.97-1.7-7.35.66,1.59,2.8,7.59,2.73,8.76Z"/>
  <g>
    <path class="cls-2" d="M3.89,63.56c-1.75-2.53-2.48-5.74-3.16-8.78.53-.03.59.53.93,1.06l.28-10.36c.15-5.62,3.94-14.16,7.24-18.44-.08.79-.53,1.41-1.02,2.21C1.77,39.59.53,52.05,3.89,63.56Z"/>
    <path class="cls-2" d="M59.8,69.89c.52.12-.04.27-.26.61-11.04,5.51-20.64,7.61-33,6.56-5.29-.45-10.05-2.06-14.58-4.28-1.02-.5-2.04-1.44-3.12-1.48h-.39c-.34-.26-.4-.76-.63-1.04.25-.17-.17-.71.29-.69,3.83,2.78,8.17,4.87,12.94,5.98,5.78,1.34,11.32,1.82,17.31.99,7.47-1.03,14.81-3.24,21.44-6.65Z"/>
    <path class="cls-2" d="M8.11,69.56c-.46-.03-.03.52-.29.69-.69-.63-1.23-1.41-1.38-2.36.81.3,1.04,1.21,1.67,1.67Z"/>
    <path class="cls-5" d="M60.1,38.63c-1.16-.32-.84,4.55-.34,3.86-.11,1.31-.57,7.68-.29,8.7-.48.58-.75,1.51-1.14,2.15-.8-.01-7.2.19-6.69-.26,1.94.09,4.16.06,5.3-1.73-.63-.18-1.07.09-1.5-.14-.06-.03-1.19-2.35-.27-2.27-1.62-.19-2.64.63-3.59,1.94-1.1,1.52-5.09,1.16-4.36,2.04-1.14-.13-2.31-.45-3.64-.21l-14.34-2.92c3.47-.45,6.4,1.33,9.81,1.39,1.53.03,2.52-1.59,3.75-1.94,2.13-.61,7.69,1.81,6.63-.92-.11-.29-.71-.05-1.35-.33.35-.22.52-.46.72-.7.56-.65.25-1.27-.21-1.9-1.4-1.96-.09,1.38-5.85-.48-.13-.36-.13-.78-.37-1.28-.74-.25-1.84-.05-2.26-.77-.11-.18.5-.63.44-.87-.04-.15-.21-.29-.39-.37.75-1.73,2.22-3.49,3.08-5.09-.48-.87-.85-1.81-.27-3,.4-.83-1.12-1.78-1.84-1.64-2.45-1.18-1.67.05-3.45-2.15-.58-.11-2.18.66-2.14-.57.02-.67.63-1.43-.06-1.81-.66-3.5-2.14-3.19-2.79-5.3l10.92-.21c4.72-.09,9.25-.15,14.12-.83,2.27,5.09,2.83,12.42,2.37,17.63ZM44.41,22.58c1.47-.38,2.67.28,3.75-.33-1.61-.18-3.29-.24-4.63.04-.39.76-.15,2.19.38,2.8.49.56,1.36,1.39,2.38.51-.96-.54-1.93-.22-2.09-1.15-.09-.51-.64-1.66.22-1.88ZM46.46,26.06c-.36.45.15.73.43.64.14-.04.41.1.54-.19.11-.25-.05-.54-.2-.52-.22.02-.63-.11-.77.07ZM49.18,33.7c-.46-.61-.86-1.14-.57-1.98.7-1.32-.12-3.06-1.27-3.49-.28.7-.41,1.85-1.6,1.59.95,1.66,1.6,3.29,3.44,3.87ZM46.64,41.08c-.06-.84-1.19-1.29-.58-2.06.3-.37.47-1.08.16-1.48-.26-.34-.88-.33-1.37-.31-.35.02-2.47,4.29-1.43,5.88,1.16.32,3.32-.55,3.21-2.03Z"/>
    <path class="cls-5" d="M69.91,22.8c.17.93.37,1.37.91,2.3,1.51,2.59,2.2,5.64,3.05,8.5-1.05.2-4.13.67-3,1.52-2.95.68-5.86,1.43-9.16,1.98-.57-1-.46-2.1-.48-3.17-.09-4.56-.76-8.79-2.44-13.2,3.28-.43,5.78-.94,8.68-1.75.88,1.22,2.19,2.4,2.44,3.82Z"/>
    <path class="cls-5" d="M45.33,10.9c1.69.33,3.52.05,5.22.6,1.16.38,2.4.52,3.58.72,3.74.63,7.1,2.6,10.51,4.22.8.38,1.85.75,2.25,1.93l-8.29,1.45c-.94-1.99-2.8-6.52-4.74-6.91,1.34,2.4,2.47,4.46,3.47,6.84-1.19.71-2.53.48-3.93.62-2.28.22-14,.97-15.07-.19-.85.47-1.82.76-2.84.55l3.81-1.46c2.15-.82,4.76-5.2,4.62-6.01-.06-.33-1.11-.61-1.05-1.03.36-.65,1.51-.29,1.75-.98.09-.26.46-.33.7-.35ZM47.47,15.59c-.58-1.15-1.44-1.81-2.5-1.72.41,1.16.38,1.96.37,3.05.86-.22,1.29-.72,2.13-1.33ZM49.17,18.38c-.7-.36-.94-.56-1.31-.83-.14.92-.09,1.37.01,2.19.59-.37.98-.79,1.3-1.35Z"/>
    <path class="cls-4" d="M69.2,52.73c1.42-1.01,1.81.04,2.44-.57.14-.14-.21-.59-.02-.86.52-.71,1.63-2.13,1.07-3,.31-.86-5.36.93-4.7.49-.39.26-.02,1.2-.4,1.6s-1.09.28-1.41.44c-.5.25-.84,1.31-.39,1.7.48.42,1.51-.12,1.69.53-3.03.46-6.1.33-9.16.29.4-.64.67-1.57,1.14-2.15.43-.53.61-.68.7-1.7l1.05-11.59c1.04-.09,1.73.1,2.3-.03.04,2.22,1.91,3.76,4,4.51.98.36.69,2.34,1.42,2.79,1.25.77,2.89.32,4.25,1.61.73-1.52.11-3.02-1.4-3.77s-2.51-1.87-3.68-3.01c-.87-.85-1.81-1.36-1.43-2.8-.95.05,7.71-1.85,7.9-2.31.79,6.17-.02,12.01-2.43,17.65-1.05.37-2.02.07-2.96.17ZM67.42,47.34c-.7-1.17-1.33-2.84-2.8-3.07-1.01-.16-1.44,1.09-1.67,1.68-.32.84.84,3.73.76,3.7.73.23,2.84-1.65,3.7-2.31Z"/>
    <path class="cls-5" d="M58.93,67.4c-7.42,5.53-21.34,8.5-31.28,7.55-1.05-3.18-2.17-6.2-1.97-9.77,8.38,2.96,16.81,4.5,25.59,4.34,2.83-.05,4.97-.62,7.66-2.12Z"/>
    <path class="cls-4" d="M22.9,20.36c3.17.59,6.54,1.75,9.79,1.69.65,2.11,2.13,1.81,2.79,5.3.25,1.63-3.55,2.95-5.09,2.26-.44-.2-2.9-3.44-3.82-1.81-.16.28-.38.95-.11,1.34l2.95,4.28c.66.95.11,1.65.12,2.51,0,.62.09,1.3-.21,1.85,1.29,1.92,3.18,3.66,4.78,5.36-6.31-.71-4.88-.19-9.16-4.13-2.46-6.03-.07-2.93-4.48-8.6,3.25.36,3.19,2.6,5.59,3.34.91-1.3-1.45-2.96-1.52-4.05-.04-.68-.55-1.76-.43-2.33.11-.52,1.36-3.51-1.04-4.71-.3-.55-1.12-1.11-1.26-1.92-.1-.54.85-.41,1.11-.4Z"/>
    <path class="cls-4" d="M49.63,62.21l-3.53,1.72c-2.08,1.01-4.2,1.25-5.73,3.14-.45.56-1.52.28-2.06.41-.22-.05-.44-.06-.66-.09,0-1.05,1.07-1.48,2.11-2.13-1.09-2.47-2.11-4.74-2.42-7.41,1.64-2.15,4.61-2.92,5.57-4.15l4.46.07,8.09.73c-1.93,2.88-3.58,5.52-5.81,7.72Z"/>
    <path class="cls-4" d="M69.59,53.69c-.46.85-1.58.53-2.44,1.02,1.29,3.19-1.82,5.06.03,5.02-.74.58-1.09,1.83-2.13,2.09-.73.18-1.07.99-1.75,1.45l-3.34,2.23c-1.11.74-2.39.95-3.06,1.99-.86-.5-.42-1.86-.98-2.7-1.15-1.73-3.83-1.83-4.59-2.64,1.44-3.02,3.94-4.49,5.52-7.8,4.47.25,8.58-.21,12.74-.67Z"/>
    <path class="cls-5" d="M42.89,53.7c-.96,1.24-3.93,2-5.57,4.15.31,2.67,1.33,4.94,2.42,7.41-1.04.65-2.1,1.08-2.11,2.13-3.16-.48-6.27-1.47-9.7-2.48-.86-1.83,1.51.54,2.3-.12,1.76-1.47-.31-2.14,1.39-5.44.8-1.56,1.46-3.06,2.58-4.51.35-.45.31-1.91,1.07-2.03,2.59-.41,5.31.06,7.61.88Z"/>
    <path class="cls-4" d="M79.97,48.15c-.04-.55-5.11,1.79-4.87,1.62-.67.47-.5,1.71-.69,2.3l-.3-.11h-.35c1.46-5.06,2.66-10.21,1.93-15.65-.4-2.94.57-1.57,3.64-4l.71-.56c1.32,2.88,2.37,5.91,2.62,9.31.21,2.92-2.92,7.66-2.7,7.09Z"/>
    <path class="cls-4" d="M35.84,11.6c.32.02.7.04.89.21.01,1.99-2.43,8.35-4.08,8.96-3.05.02-6.13-.33-9.07-1.12.87-2.68,3.1-4.54,5.08-6.5,2.19-1.26,4.75-1.21,7.18-1.55Z"/>
    <path class="cls-5" d="M51.33,62.16c.76.8,3.44.9,4.59,2.64.56.84.12,2.2.98,2.7-1.74,2.73-15.29.76-18.6-.01.54-.13,1.61.15,2.06-.41,1.54-1.89,3.65-2.13,5.73-3.14l3.53-1.72c.18.4.06.78,0,1.37.66-.53,1.03-1.12,1.7-1.43Z"/>
    <path class="cls-4" d="M41.14,31.89c.72-.13,2.25.81,1.84,1.64-.58,1.2-.22,2.14.27,3-.86,1.6-2.34,3.37-3.08,5.09-2.26-.21-5.07-1.34-6.14-3.58-1.29-2.68,3.42-4.19,5.19-4.41.26-.36.14-1.38.45-1.57.46-.27,1.01-.2,1.47-.18Z"/>
    <path class="cls-5" d="M69.93,19.26c1.41.12,2.16,1.68,3.14,2.17,1.24.63,1.37,1.94,2.73,1.74-.06,1.06.67,2.29,1.44,3.12,1.6,1.71,1.97,3.63,2.81,5.47l-.71.56c.19-.21.19-.77-.15-1.02-.19-.14-.51-.36-.76-.04-.82,1.06-1.96,1.57-2.89,2.5-1.54-6.08-2.82-10.45-7.1-14.65.74-.31,1.07.1,1.48.14Z"/>
    <path class="cls-4" d="M44.62,11.25c-.24.7-1.39.34-1.75.98-.06.41,1,.7,1.05,1.03.14.81-2.47,5.19-4.62,6.01l-3.81,1.46c-.32-.07-.75-.09-1.08-.06.35-1.76,1.8-3.17,2.4-4.97l1.41-4.23c1.23.45,2.1-.02,2.89-.22,1.1-.28,2.39.2,3.51,0Z"/>
    <path class="cls-5" d="M79.97,48.15c-.78,2.1-2.17,3.73-3.63,5.64-2.92,3.8-6.53,6.79-10.4,9.64-.43.32-.59,1.25-1.43.62,2.22-1.3,3.69-2.97,5.06-5.07,1.26-1.94,2.81-3.6,3.53-5.89.34-.54,1.77-.38,1.32-1.01.18-.59.01-1.84.69-2.3-.24.17,4.83-2.17,4.87-1.62Z"/>
    <path class="cls-5" d="M66.7,37.22c-.39,1.44.55,1.95,1.43,2.8,1.17,1.14,2.17,2.26,3.68,3.01s2.13,2.25,1.4,3.77c-1.36-1.28-3.01-.83-4.25-1.61-.73-.45-.44-2.44-1.42-2.79-2.08-.76-3.96-2.29-4-4.51.96-.54,2.08-.6,3.17-.66Z"/>
    <path class="cls-4" d="M41.11,44.64c.04.34.46.23.7.25.3.02.65-.06.94.03,5.77,1.86,4.45-1.47,5.85.48.45.63.77,1.25.21,1.9-.65-.06-1.62.39-2.28-.03-.83-.53-1.41-.23-2.26-.28-1.96-.11-13.18-2.31-14.96-3.14,3.82-.42,8.71,1.09,11.81.79Z"/>
    <path class="cls-5" d="M28.66,13.15c-1.98,1.96-4.21,3.81-5.08,6.5-.89-.24-3.88-.44-4.23-2.76,1.61-1.38,3.59-2.37,5.6-3.18-.09,1.14,2.12-1.11,3.7-.56Z"/>
    <path class="cls-5" d="M69.2,52.73c-.47.33-1.19.25-1.72.33-.18-.65-1.21-.11-1.69-.53-.44-.39-.1-1.45.39-1.7.32-.16,1.02-.03,1.41-.44s0-1.34.4-1.6c-.67.44,5.01-1.35,4.7-.49.56.87-.55,2.29-1.07,3-.2.27.16.72.02.86-.63.61-1.02-.44-2.44.57Z"/>
    <path class="cls-5" d="M22.9,20.36c-.26-.01-1.21-.13-1.11.4.14.81.96,1.37,1.26,1.92-.05,0-.17-.02-.36-.06-1.9,1.26-3.9,5.62-4.92,5.86-.33.08-1.27-.26-.92-.68,3.78-4.73.7-2.64,3.78-7.08.01-.63-1.05-1.08-1.5-1.25-.77-.29-1.38.72-2.46,1.04.6-3.21,6.35-.13,6.24-.15Z"/>
    <path class="cls-4" d="M51.65,53.09c-1.46-.07-2.96.01-4.42-.16-.73-.88,3.26-.51,4.36-2.04.95-1.31,1.97-2.14,3.59-1.94-.93-.08.21,2.24.27,2.27.43.23.87-.04,1.5.14-1.14,1.79-3.36,1.82-5.3,1.73Z"/>
    <path class="cls-5" d="M67.18,59.73c-1.85.04,1.26-1.83-.03-5.02.86-.49,1.97-.17,2.44-1.02.32-.59,1.59-.55,2.3-.59-1.14,2.67-2.63,5-4.71,6.63Z"/>
    <path class="cls-5" d="M41.11,11.25c-.8.2-1.66.67-2.89.22l-1.41,4.23c-.6,1.79-2.04,3.21-2.4,4.97-.59.07-1.17.09-1.76.09,1.65-.61,4.09-6.96,4.08-8.96-.19-.17-.56-.19-.89-.21,1.7-.24,3.46-.53,5.27-.35Z"/>
    <path class="cls-5" d="M25.65,72.92c.48.66.79,1.1,1.12,1.79-2.61-.12-8.4-1.19-9.83-2.31,2.34-.4,6.68,2.73,8.71.53Z"/>
    <path class="cls-4" d="M70.88,35.12c-1.13-.84,1.94-1.31,3-1.52-.86-2.86-1.55-5.91-3.05-8.5-.54-.94-.74-1.37-.91-2.3,2.19,2.27,3.61,7.47,4.62,10.89-1.38.48-2.44,1.15-3.65,1.43Z"/>
    <path class="cls-5" d="M12.11,31.4c-.7-.68-1.05.25-1.42.18s-1.01-.85-1.13-1.34c.18-.59,1.52-1,2.37-.85.69.12.6,1.93.18,2.01Z"/>
    <path class="cls-4" d="M56.9,67.5c.67-1.04,1.94-1.25,3.06-1.99l3.34-2.23c.68-.46,1.02-1.27,1.75-1.45-2.02,2.71-4.99,4.48-8.14,5.68Z"/>
    <path class="cls-4" d="M59.77,42.49c-.51.69-.82-4.18.34-3.86l-.34,3.86Z"/>
    <path class="cls-5" d="M41.81,44.89c-.24-.02-.66.09-.7-.25.24-.02.65-.06.7.25Z"/>
    <path class="cls-5" d="M73.77,51.97h.35c-.03.41-.39.39-.35,0Z"/>
    <path class="cls-1" d="M45.33,10.9c-.24.02-.61.09-.7.35-1.12.2-2.41-.28-3.51,0-1.81-.18-3.57.11-5.27.35-2.43.34-5,.29-7.18,1.55-1.58-.55-3.8,1.7-3.7.56,3.1-1.23,6.3-2.4,9.84-2.75l3.17-.31c2.59-.25,5.05-.2,7.36.25Z"/>
    <path class="cls-4" d="M46.64,41.08c.11,1.48-2.05,2.35-3.21,2.03-1.05-1.59,1.08-5.86,1.43-5.88.49-.02,1.11-.03,1.37.31.3.4.13,1.11-.16,1.48-.62.77.52,1.22.58,2.06Z"/>
    <path class="cls-4" d="M49.18,33.7c-1.84-.58-2.49-2.21-3.44-3.87,1.19.26,1.32-.89,1.6-1.59,1.15.43,1.97,2.17,1.27,3.49-.29.84.11,1.37.57,1.98Z"/>
    <path class="cls-4" d="M44.41,22.58c-.86.22-.31,1.37-.22,1.88.16.94,1.14.62,2.09,1.15-1.02.87-1.89.05-2.38-.51-.53-.61-.77-2.04-.38-2.8,1.34-.29,3.02-.22,4.63-.04-1.07.6-2.28-.05-3.75.33Z"/>
    <path class="cls-4" d="M46.46,26.06c.14-.18.55-.04.77-.07.15-.02.31.27.2.52-.13.29-.4.15-.54.19-.29.09-.79-.19-.43-.64Z"/>
    <path class="cls-4" d="M47.47,15.59c-.84.61-1.27,1.11-2.13,1.33,0-1.1.03-1.89-.37-3.05,1.06-.09,1.92.57,2.5,1.72Z"/>
    <path class="cls-4" d="M49.17,18.38c-.32.57-.71.99-1.3,1.35-.1-.81-.15-1.26-.01-2.19.37.27.61.47,1.31.83Z"/>
    <path class="cls-5" d="M67.42,47.34c-.86.65-2.98,2.54-3.7,2.31.08.03-1.08-2.86-.76-3.7.22-.59.66-1.84,1.67-1.68,1.46.23,2.1,1.9,2.8,3.07Z"/>
  </g>
</svg>